<svg width="20" height="43" viewBox="0 0 20 43" fill="none" xmlns="http://www.w3.org/2000/svg">
<path d="M13.9754 21.9708L13.5061 21.5068L7.44086 15.5457C5.91384 13.9151 4.74809 12.074 4.74809 9.76709C4.74809 6.59549 7.22484 3.57297 11.0778 3.57297C15.9512 3.57297 17.7911 8.35646 16.5192 10.9392C15.7985 12.4001 13.819 13.1865 12.724 12.8064C12.6122 12.7673 12.6067 12.5995 12.7109 12.5436C13.5676 12.0908 14.2529 11.1852 14.2566 9.86026C14.2622 8.33223 13.1467 6.85451 11.1783 6.85451C8.95485 6.85451 6.54141 9.72237 9.8934 13.1437C12.1411 15.4394 17.1505 19.9043 19.0611 23.2417C19.1244 23.3535 19.2622 23.3368 19.3125 23.2175C20.5323 20.2639 19.1486 16.7793 16.806 15.4189C16.7129 15.3649 16.7017 15.2419 16.7911 15.1804C18.7445 13.8331 19.3498 11.761 19.5434 10.7827C20.7222 4.83826 14.7501 -0.573213 8.46881 0.554176C5.09632 1.15794 1.84302 3.23382 0.574847 8.01544C-0.157006 10.7696 0.496634 13.4157 1.75922 15.7637C2.60281 17.3327 4.41475 19.5726 6.05909 21.1118L6.52837 21.5758L12.5936 27.537C14.1206 29.1675 15.2864 31.0086 15.2864 33.3156C15.2864 36.4872 12.8096 39.5097 8.95671 39.5097C4.08327 39.5097 2.2434 34.7262 3.5153 32.1434C4.23598 30.6825 6.21552 29.8961 7.3105 30.2763C7.42037 30.3154 7.42596 30.485 7.32168 30.539C6.46506 30.9918 5.77976 31.8975 5.77603 33.2224C5.77045 34.7504 6.88592 36.2281 8.85429 36.2281C11.0778 36.2281 13.4912 33.3603 10.1392 29.939C7.89152 27.6432 2.88214 23.1784 0.971501 19.8409C0.908185 19.7291 0.770381 19.7459 0.720101 19.8651C-0.499654 22.8187 0.883977 26.3034 3.22665 27.6637C3.31976 27.7177 3.33094 27.8407 3.24155 27.9022C1.28808 29.2495 0.682856 31.3235 0.489185 32.3C-0.689601 38.2444 5.28254 43.6559 11.5638 42.5285C14.9344 41.9247 18.1896 39.8488 19.4578 35.0672C20.1896 32.313 19.536 29.6669 18.2734 27.319C17.4298 25.7499 15.6179 23.5082 13.9735 21.9708" fill="#3A6CB4"/>
</svg>
