<?xml version="1.0" encoding="utf-8"?>
<!-- Generator: Adobe Illustrator 27.5.0, SVG Export Plug-In . SVG Version: 6.00 Build 0)  -->
<svg version="1.1" id="Capa_1" xmlns="http://www.w3.org/2000/svg" xmlns:xlink="http://www.w3.org/1999/xlink" x="0px" y="0px"
	 viewBox="0 0 2122 2122" style="enable-background:new 0 0 2122 2122;" xml:space="preserve">
<g>
	<g>
		<path style="fill:#A64973;" d="M1247.482,1423.696l1.129,0.377l0.155,0.044c-0.548-0.184-1.038-0.347-1.472-0.492
			L1247.482,1423.696z"/>
		<path style="fill:#A64973;" d="M1978.125,1716.221l-10.904,0.038c-21.132,0.073-38.152,17.479-37.646,38.708
			c0.49,20.499-17.053,36.949-37.558,37.02l-5.147,0.018l0.021,6.168c-17.024-0.629-34.096-0.662-51.139-0.289v-14.141h-140.018
			c0.029-1.583-0.965-3.187-3.005-3.187h-0.798c-1.489-19.83-3.956-39.597-6.836-59.001
			c-10.076-67.883-33.067-136.929-77.505-187.617c-25.562-29.157-59.413-50.738-95.547-60.392
			c-32.511-8.686-67.256-9.41-100.681-3.806c37.071-29.083,64.499-72.91,55.577-120.22c-10.097-53.535-50.815-93.572-94.048-123.596
			c-25.768-17.895-53.255-34.444-81.901-47.622c-0.257-4.484-0.668-9.19-1.267-14.052c-3.429-27.893-11.327-49.875-17.64-49.099
			c-4.551,0.56-7.021,12.824-6.769,30.062c-6.18-23.895-15.011-41.37-20.674-40.099c-5.488,1.232-6.146,19.641-1.973,42.84
			c-11.838-18.749-23.76-30.916-28.479-28.296c-5.192,2.883,0.179,22.62,12.016,45.222c-17.394-15.079-32.909-23.497-36.953-19.369
			c-4.81,4.911,8.421,25.677,29.553,46.382c3.107,3.044,6.204,5.892,9.255,8.563c-0.848,5.103-0.748,10.336,0.305,15.345
			c-10.289,0.948-19.508,2.925-26.398,5.446c10.073-20.416,6.473-45.151-10.147-59.501c-4.18-3.61-8.858-6.211-13.776-7.949
			l0.007-0.056c0,0-10.67-2.229-8.667-23.364l-0.024-0.014c0.766-14.557-4.523-28.885-15.685-38.525
			c-15.603-13.47-37.897-13.668-55.191-2.187l-0.037-0.02l-0.421,0.306l-0.703,0.473c-3.456,2.234-14.475,7.97-24.722-1.798
			l-0.033,0.054c-0.56-0.537-1.082-1.101-1.674-1.611c-19.544-16.873-49.614-12.981-67.164,8.698
			c-6.821,8.425-10.709,18.295-11.814,28.207l-0.032-0.024c-1.607,12.003-9.474,15.123-12.223,15.855l-0.467,0.116L978.7,1140
			l0.02,0.03c-11.72,2.694-22.785,9.868-30.528,21.036c-15.881,22.903-11.811,53.784,9.085,68.975
			c3.478,2.527,7.217,4.407,11.081,5.768l-0.026,0.048c0,0,14.101,3.889,17.522,27.044l0.191,0.776
			c2.286,11.08,8.253,21.149,17.688,28.008c2.271,1.65,4.671,2.962,7.122,4.11l-29.849,64.792
			c-32.261,5.098-59.377,14.478-77.231,26.429V851.462c15.583,0,28.215-12.633,28.215-28.216V459.117
			c0-15.583-12.633-28.216-28.215-28.216V298.259c0-33.392-27.07-60.461-60.462-60.461H203.138
			c-33.392,0-60.462,27.069-60.462,60.461v1517.724c0,33.392,27.07,60.461,60.462,60.461h640.176
			c32.639,0,59.167-25.883,60.349-58.234c26.137,40.366,72.302,65.62,122.615,65.266l0.9,0.046h808.573v-11.049
			c17.127-0.271,34.286-0.154,51.399,0.593l0.036,10.456l73.927-0.256c9.715-0.034,17.564-7.937,17.529-17.652L1978.125,1716.221z
			 M1200.261,1613.948l-6.76-131.12c3.621,1.556,7.253,3.061,10.897,4.483c34.06,13.296,71.618,21.926,108.401,19.984
			c-17.772,10.901-34.671,23.541-50.783,37.578C1238.792,1565.104,1218.672,1588.751,1200.261,1613.948z M1290.755,1432.585
			C1289.798,1432.516,1289.584,1432.492,1290.755,1432.585L1290.755,1432.585z M1175.21,1246.882l0.773-0.263l-0.074-0.009
			c5.863-2.588,11.351-6.434,16.159-11.377c6.037,4.409,21.782,6.671,40.025,5.219c4.2-0.334,8.235-0.846,12.031-1.495
			c1.402,0.863,2.858,1.669,4.433,2.339c23.153,9.854,45.468,22.219,66.766,35.618c20.117,13.204,39.395,27.974,56.025,45.401
			c6.459,7.526,12.291,15.553,17.132,24.212c1.767,4.054,3.243,8.215,4.421,12.478c0.401,2.798,0.706,5.608,0.776,8.441
			l-0.001,0.534c-0.19,1.527-0.381,3.053-0.668,4.573c-0.289,1.533-0.695,3.027-1.079,4.53l-0.293,0.769
			c-1.413,3.459-3.139,6.762-4.981,10.002c-4.901,6.922-10.51,13.303-16.586,19.224c-6.895,5.826-14.272,10.987-22.145,15.4
			c-7.618,3.46-15.505,6.193-23.624,8.208c-5.438,0.925-10.906,1.644-16.418,1.967c-3.221,0.189-6.449,0.278-9.678,0.274
			c-1.382-0.002-3.109-0.078-4.632-0.163c-12.233-1.177-24.272-3.12-36.195-6.231c-2.885-0.753-5.755-1.562-8.613-2.416
			c0.979,0.327,2.105,0.705,3.49,1.172c-1.213-0.409-2.43-0.809-3.645-1.216l-0.068-0.019c-2.6-0.781-7.392-2.472-1.249-0.429
			c-5.57-1.917-11.081-4.003-16.525-6.25c-9.823-4.053-19.441-8.602-28.831-13.575c-6.455-3.417-12.77-7.092-18.99-10.92
			c-1.99-1.309-4.007-2.579-5.925-3.986c-5.302-3.888-11.558-6.503-18.007-7.67c-16.733-9.044-39.287-16.151-65.373-20.416
			l3.676-38.073l0.651-0.049c1.683-0.238,2.571-2.361,2.181-3.841l-0.458-0.915c21.669-1.52,40.894-16.306,52.573-38.247
			l12.153-2.045c9.211-1.549,14.969-10.833,12.264-19.773l-3.135-10.357C1174.1,1247.295,1174.661,1247.115,1175.21,1246.882z
			 M1212.691,1783.742c11.126-27.03,24.381-53.114,39.419-77.81c5.758-9.458,11.854-18.668,18.17-27.701
			c17.336-23.403,36.701-45.036,58.374-63.789c15.832-12.577,32.735-23.472,50.655-32.212c16.145-6.797,32.866-11.746,49.975-14.733
			c14.904-1.708,29.968-2.047,44.892-0.558c10.607,1.902,20.999,4.84,31.065,8.913c7.938,4.073,15.514,8.863,22.694,14.336
			c7.912,7.141,15.16,15.051,21.766,23.597c9.712,14.405,17.769,29.983,24.496,46.244c11.054,30.169,18.098,61.92,22.518,93.983
			c1.025,8.888,1.859,17.809,2.508,26.753c-1.322,0.452-1.993,1.7-1.971,2.976H1212.691z"/>
	</g>
	<path style="fill:#0C826B;" d="M903.776,430.902V298.259c0-33.392-27.07-60.461-60.462-60.461H203.138
		c-33.392,0-60.462,27.069-60.462,60.461v1517.724c0,33.392,27.07,60.461,60.462,60.461h640.176
		c32.639,0,59.167-25.883,60.349-58.234c-9.46-14.61-16.327-31.172-19.776-49.241c-2.508-13.141-3.021-26.204-1.825-38.923
		c-10.264-5.102-18.441-10.776-24.095-16.876c-5.779-6.235-8.962-12.902-8.99-19.848c-0.004-1.144,0.085-2.28,0.247-3.41
		c1.716-23.396,12.284-162.771,26.268-242.926c1.728-9.9,3.506-18.901,5.327-26.663c0.043-12.185,8.442-23.591,22.956-33.306
		V851.462c15.583,0,28.215-12.633,28.215-28.216V459.117C931.992,443.534,919.359,430.902,903.776,430.902z"/>
	<path style="fill:#DDEFFC;" d="M843.318,264.471H685.183H203.137c-17.771,0-32.176,14.405-32.176,32.175v482.047v415.789v375.555
		v114.509c0,6.664,2.026,12.856,5.495,17.991c3.615,5.35,8.795,9.554,14.884,11.955c3.653,1.44,7.634,2.232,11.799,2.232h236.924
		h403.252c5.283,0,10.254-1.297,14.652-3.553c-5.779-6.235-8.962-12.902-8.99-19.848c-0.004-1.144,0.085-2.28,0.247-3.41
		c1.716-23.396,12.284-162.771,26.268-242.926v-165.693V865.505V489.95V296.647C875.494,278.877,861.088,264.471,843.318,264.471z"
		/>
	<path style="fill:#FFFFFF;" d="M367.011,1790.527l4.917-0.784c-2.405-15.006-15.338-25.698-30.084-25.698
		c-1.596,0-3.212,0.126-4.832,0.384c-15.007,2.403-25.699,15.337-25.699,30.083c0,1.599,0.127,3.215,0.386,4.834
		c2.401,15.004,15.335,25.695,30.083,25.696c1.596,0,3.211-0.125,4.832-0.384c15.005-2.404,25.697-15.337,25.698-30.083
		c0-1.595-0.125-3.211-0.384-4.832L367.011,1790.527z M345.046,1814.823c-1.1,0.175-2.19,0.259-3.264,0.259
		c-9.898,0-18.648-7.202-20.248-17.305c-0.176-1.104-0.262-2.193-0.262-3.265c0-9.897,7.202-18.648,17.307-20.248
		c1.102-0.176,2.19-0.26,3.264-0.26c9.897,0,18.648,7.201,20.249,17.307c0.175,1.1,0.259,2.19,0.259,3.264
		C362.353,1804.471,355.149,1813.223,345.046,1814.823z"/>
	<path style="fill:#FFFFFF;" d="M548.424,1790.527l4.917-0.785c-2.405-15.006-15.339-25.697-30.085-25.698
		c-1.596,0-3.211,0.126-4.831,0.384c-15.007,2.403-25.698,15.337-25.698,30.083c0,1.599,0.127,3.215,0.386,4.834
		c2.401,15.004,15.336,25.695,30.083,25.696c1.595,0,3.211-0.125,4.832-0.384c15.005-2.404,25.698-15.337,25.698-30.083
		c0-1.595-0.125-3.211-0.384-4.832L548.424,1790.527z M526.459,1814.823c-1.1,0.175-2.189,0.259-3.264,0.259
		c-9.898,0-18.649-7.202-20.248-17.305c-0.176-1.104-0.261-2.193-0.261-3.265c0-9.897,7.201-18.648,17.307-20.248
		c1.101-0.176,2.19-0.26,3.263-0.26c9.895,0,18.648,7.202,20.25,17.307c0.175,1.1,0.259,2.189,0.259,3.263
		C543.766,1804.471,536.562,1813.223,526.459,1814.823z"/>
	<path style="fill:#FFFFFF;" d="M729.836,1790.527l4.917-0.784c-2.404-15.006-15.338-25.698-30.084-25.698
		c-1.596,0-3.212,0.126-4.832,0.384c-15.007,2.403-25.698,15.337-25.698,30.084c0,1.599,0.127,3.214,0.385,4.834
		c2.401,15.004,15.336,25.695,30.083,25.696c1.596,0,3.211-0.125,4.832-0.384c15.005-2.404,25.696-15.337,25.697-30.083
		c0-1.594-0.124-3.21-0.383-4.832L729.836,1790.527z M707.872,1814.823c-1.1,0.175-2.189,0.259-3.264,0.259
		c-9.898,0-18.648-7.202-20.247-17.305c-0.176-1.104-0.261-2.193-0.261-3.264c0-9.897,7.201-18.649,17.307-20.248
		c1.101-0.176,2.189-0.26,3.264-0.26c9.896,0,18.648,7.202,20.249,17.307c0.175,1.099,0.258,2.188,0.258,3.264
		C725.178,1804.472,717.975,1813.223,707.872,1814.823z"/>
	<path style="fill:#1D4A93;" d="M237.312,293.082c-10.501-3.97-23.343-0.564-30.455,8.133c-7.404,9.055-8.833,21.897-2.742,32.089
		c6.073,10.164,17.808,15.074,29.324,13.002c12.902-2.322,22.056-14.32,22.231-27.153
		C255.509,307.413,248.258,297.22,237.312,293.082z M222.006,305.064 M215.905,328.55 M221.859,333.166 M243.109,321.229
		 M243.124,320.944l-0.007,0.149c-0.161,0.931-0.373,1.852-0.651,2.756c-0.153,0.497-0.328,0.989-0.521,1.472l-0.115,0.204
		c-0.559,0.989-1.094,1.951-1.729,2.895l-0.085,0.129l-0.146,0.153l-0.941,1.033l-0.801,0.78l-0.733,0.638
		c-0.664,0.49-1.358,0.949-2.074,1.352l-0.997,0.527l-0.405,0.193l-0.457,0.171c-0.917,0.295-1.824,0.577-2.768,0.774l-0.762,0.13
		l-1.08,0.08c-0.998,0.041-1.991,0.008-2.985-0.081l-0.112-0.007l-0.26-0.063c-0.566-0.13-1.128-0.243-1.687-0.399
		c-0.553-0.154-1.089-0.348-1.633-0.529l-0.161-0.066c-0.822-0.394-1.626-0.818-2.396-1.307l-1.158-0.79l-0.069-0.047l-0.199-0.201
		c-0.795-0.785-1.584-1.53-2.317-2.378l-0.071-0.091c-0.314-0.467-0.631-0.927-0.919-1.41l-0.552-0.982l-0.426-0.885
		c-0.304-0.784-0.573-1.586-0.777-2.401l-0.251-1.131l-0.066-0.375l-0.051-0.588c-0.062-0.896-0.07-1.796-0.02-2.693l0.116-1.105
		l0.14-0.722c0.209-0.939,0.505-1.842,0.81-2.752l0.092-0.297l0.176-0.296c0.277-0.492,0.52-0.999,0.81-1.484l0.76-1.18l0.337-0.435
		c0.571-0.658,1.154-1.298,1.795-1.891l0.662-0.579l0.709-0.527c0.931-0.625,1.911-1.161,2.923-1.643l0.104-0.035
		c0.544-0.181,1.08-0.374,1.633-0.529l1.119-0.281l0.892-0.164l0.935-0.092c0.499-0.027,0.999-0.036,1.499-0.029
		c0.498,0.007,0.993,0.048,1.491,0.07l0.341,0.009l0.326,0.089c1.126,0.277,2.221,0.561,3.321,0.928l0.173,0.056l0.165,0.09
		c0.59,0.294,1.173,0.593,1.739,0.931l0.949,0.601l0.578,0.41l0.378,0.321c0.664,0.654,1.321,1.312,1.976,1.976l0.253,0.245
		l0.16,0.249c0.314,0.467,0.63,0.926,0.92,1.41c0.29,0.485,0.532,0.993,0.809,1.484l0.174,0.29l0.095,0.303
		c0.369,1.104,0.651,2.191,0.928,3.321l0.053,0.3c0.072,0.718,0.108,1.436,0.118,2.157
		C243.189,319.753,243.15,320.346,243.124,320.944z"/>
	<path style="fill:#FFFFFF;" d="M906.658,832.791c0-96.448,0-192.896,0-289.345c0-27.438,0-54.875,0-82.314
		c0-4.013-6.236-4.019-6.236,0c0,96.449,0,192.897,0,289.345c0,27.438,0,54.876,0,82.314
		C900.422,836.803,906.658,836.81,906.658,832.791z"/>
	<path style="fill:#BFD9F3;" d="M875.494,489.95V296.647c0-17.77-14.405-32.175-32.175-32.175H685.183L170.961,778.693v415.789
		l650.244-650.244v375.555l-650.244,650.244v114.509c0,6.664,2.026,12.856,5.495,17.991c5.783,8.56,15.576,14.187,26.683,14.187
		h236.924l381.142-381.142v333.483h9.959v-343.442l44.329-44.33V865.505l-44.329,44.33V534.279L875.494,489.95z"/>
	<path style="fill:#462013;" d="M1263.694,1179.594c1.093-3.185-3.949-4.553-5.034-1.388c-5.096,14.862-0.895,32.146,10.347,43.09
		c2.408,2.345,6.104-1.343,3.691-3.692C1262.706,1207.877,1259.178,1192.765,1263.694,1179.594z"/>
	<path style="fill:#462013;" d="M1009.428,1241.444c-9.631-12.926-9.911-29.012-0.626-35.931c6.782-5.053,16.778-3.761,25.434,2.309
		l0.066-0.265l0.122,0.351c0,0,41.574,13.934,40.936-29.009c0,0,25.73,32.513,84.024,21.446c0.663,2.132,1.246,4.308,1.773,6.522
		l0.049-0.139l12.342,40.781c0.553-0.214,1.113-0.395,1.662-0.627l0.773-0.263l-0.074-0.009c5.863-2.588,11.351-6.434,16.159-11.377
		c1.15-1.181,2.296-2.37,3.36-3.683c2.624-3.241,4.767-6.714,6.538-10.303c10.073-20.416,6.473-45.151-10.147-59.501
		c-4.18-3.61-8.858-6.211-13.776-7.949l0.007-0.056c0,0-10.67-2.229-8.667-23.364l-0.024-0.014
		c0.766-14.557-4.523-28.885-15.685-38.525c-15.603-13.47-37.897-13.668-55.191-2.187l-0.037-0.02l-0.421,0.306l-0.703,0.473
		c-3.456,2.234-14.475,7.97-24.722-1.798l-0.033,0.054c-0.56-0.537-1.082-1.101-1.674-1.611
		c-19.544-16.873-49.614-12.981-67.164,8.698c-6.821,8.425-10.709,18.295-11.814,28.207l-0.032-0.024
		c-1.607,12.003-9.474,15.123-12.223,15.855l-0.467,0.116L978.7,1140l0.02,0.03c-11.72,2.694-22.785,9.868-30.528,21.036
		c-15.881,22.903-11.811,53.784,9.085,68.975c3.478,2.527,7.217,4.407,11.081,5.768l-0.026,0.048c0,0,14.101,3.889,17.522,27.044
		l0.191,0.776c2.286,11.08,8.253,21.149,17.688,28.008c2.271,1.65,4.671,2.962,7.122,4.11l18.808-40.824
		C1022.526,1253.63,1015.02,1248.949,1009.428,1241.444z"/>
	<path style="fill:#462013;" d="M1100.15,1318.845l-0.458-0.915c-0.734-1.067-2.057-1.454-3.384-1.266
		c1.699-0.241,0.084-0.026-0.322,0.008c-0.868,0.072-1.739,0.11-2.61,0.128c-3.092,0.064-6.212-0.121-9.27-0.584
		c-10.286-1.557-20.091-5.704-28.319-12.085c-1.343-1.041-3.104-1.284-4.416,0c-1.089,1.066-1.33,3.385,0,4.416
		c12.622,9.79,29.719,16.257,45.946,14.188l0.651-0.049C1099.652,1322.447,1100.54,1320.325,1100.15,1318.845z"/>
	<path style="fill:#462013;" d="M1101.51,1254.929c-1.924,7.38,0.045,16.27,5.884,21.366c3.119,2.724,6.935,4.405,10.948,5.332
		c1.639,0.378,3.377-0.506,3.836-2.178c0.432-1.575-0.53-3.455-2.178-3.836c-0.842-0.194-1.676-0.413-2.499-0.679l-1.142-0.398
		l-0.339-0.133l-0.501-0.219c-0.646-0.3-1.276-0.633-1.886-1.001l-0.849-0.544l-0.403-0.282l-0.047-0.029
		c-0.471-0.388-0.929-0.786-1.36-1.219l-0.604-0.643l-0.338-0.406c-0.652-0.89-1.211-1.822-1.69-2.817l-0.056-0.113l-0.007-0.029
		l-0.26-0.71c-0.169-0.494-0.315-0.996-0.441-1.502l-0.274-1.304l-0.067-0.428l-0.044-0.421c-0.142-1.546-0.106-3.093,0.048-4.636
		l0.008-0.113l0.02-0.099l0.124-0.703l0.132-0.598c0.425-1.629-0.539-3.386-2.178-3.836
		C1103.734,1252.309,1101.936,1253.293,1101.51,1254.929z"/>
	<path style="fill:#462013;" d="M1031.065,1241.071c0.799,1.178,1.598,2.355,2.397,3.532c0.945,1.392,2.744,2.01,4.266,1.119
		c1.381-0.807,2.069-2.866,1.119-4.266c-5.661-8.343-11.323-16.685-16.984-25.028c-0.799-1.177-1.598-2.354-2.397-3.532
		c-0.944-1.391-2.743-2.009-4.266-1.118c-1.38,0.807-2.069,2.866-1.119,4.266
		C1019.742,1224.386,1025.403,1232.729,1031.065,1241.071z"/>
	<path style="fill:#462013;" d="M1978.125,1716.221l-10.904,0.038c-21.132,0.073-38.152,17.479-37.646,38.708
		c0.49,20.499-17.053,36.949-37.558,37.02l-5.147,0.018l0.021,6.168l0.26,74.894l0.036,10.456l73.927-0.256
		c9.715-0.034,17.564-7.937,17.529-17.652L1978.125,1716.221z"/>
	<path style="fill:#91AAD9;" d="M1695.733,1783.742c0.029-1.583-0.964-3.187-3.005-3.187h-0.798
		c-1.489-19.83-3.956-39.597-6.836-59.001c-10.076-67.883-33.067-136.929-77.505-187.617
		c-25.561-29.157-59.413-50.738-95.547-60.392c-32.511-8.686-67.256-9.41-100.681-3.806c-11.509,1.93-22.865,4.6-33.916,7.968
		c-22.912,6.983-44.354,17.14-64.646,29.587c-17.772,10.901-34.671,23.541-50.783,37.578
		c-23.224,20.231-43.344,43.879-61.754,69.076l-6.76-131.12l-3.275-63.517c-0.056-14.342-11.674-27.526-31.211-38.086
		c-16.733-9.044-39.287-16.151-65.373-20.416l-4.694,48.621l-0.045,0.464l-0.031,0.322l-0.053-0.024
		c-0.096,0.483-0.193,0.966-0.397,1.41c-4.368,9.481-32.084,6.029-61.907-7.71c-29.821-13.739-50.456-32.562-46.089-42.043
		l0.58-1.26c-32.261,5.098-59.377,14.478-77.231,26.429c-14.514,9.715-22.912,21.12-22.956,33.306
		c-1.821,7.762-3.599,16.763-5.327,26.663c-13.985,80.155-24.552,219.531-26.268,242.926c-0.162,1.13-0.251,2.266-0.247,3.41
		c0.027,6.946,3.21,13.613,8.99,19.848c5.654,6.1,13.831,11.774,24.095,16.876c-1.197,12.719-0.684,25.783,1.825,38.923
		c3.449,18.068,10.316,34.63,19.776,49.241c26.137,40.366,72.302,65.62,122.615,65.266l0.9,0.046h808.573v-11.049v-74.59v-14.141
		H1695.733z M1238.933,1860.997c15.978,6.475,26.316,13.524,25.06,17.934c-1.742,6.118-25.065,4.839-52.094-2.856l-0.361-0.107
		c-6.49,4.756-14.444,7.647-22.565,7.552c-6.155-0.071-12.304-0.341-18.435-0.884c-28.622-2.531-54.902-8.999-80.967-20.64
		c-21.063-9.407-40.414-23.064-57.118-38.503c-21.749-20.099-38.858-43.892-52.764-69.393
		c-8.015-14.698-14.984-29.954-21.121-45.422c-14.941-37.659-24.073-77.347-29.832-117.208c-1.389-9.614-2.608-19.24-3.706-28.874
		c1.019-0.572,1.529-1.684,1.5-2.811l69.864-0.273c0.039,1.529,1.029,3.03,3.001,3.03h0.315c0.45,3.813,0.954,7.616,1.46,11.42
		c1.191,8.083,2.487,16.15,3.98,24.187c6.324,34.042,15.491,67.729,29.084,99.785c4.489,9.811,9.396,19.445,14.892,28.774
		c5.461,9.27,11.476,18.241,18.086,26.793l0.343,0.413l0.351,0.402c1.557,1.835,3.138,3.651,4.757,5.436
		c3.694,4.072,7.55,8.009,11.573,11.784c3.888,3.649,7.927,7.147,12.117,10.472l0.89,0.688c1.939,1.366,3.899,2.707,5.893,3.997
		c7.829,5.069,16.087,9.469,24.643,13.279c10.438,3.943,21.18,6.992,32.163,9.089c0.976-4.939,2.374-10.259,4.188-15.729
		c7.269-21.919,18.451-37.934,24.976-35.77c6.526,2.164,5.924,21.687-1.346,43.607c-1.184,3.571-2.479,6.962-3.834,10.167
		c1.683,0.053,3.361,0.178,5.047,0.198c0.48,0.005,0.941,0.062,1.415,0.083c6.778-3.939,14.818-7.939,23.644-11.628
		c27.297-11.41,51.575-15.518,54.227-9.175c2.229,5.332-11.564,16.348-32.222,26.503c25.427-2.109,45.698,0.624,46.334,6.529
		c0.577,5.366-15.27,11.614-37.145,15.224c22.992,5.184,39.693,12.954,38.692,18.488
		C1282.886,1863.269,1263.351,1864.602,1238.933,1860.997z M1212.691,1783.742c11.126-27.03,24.381-53.114,39.419-77.81
		c5.758-9.458,11.854-18.668,18.17-27.701c17.336-23.403,36.701-45.036,58.374-63.789c15.832-12.577,32.735-23.472,50.655-32.212
		c16.145-6.797,32.866-11.746,49.975-14.733c14.904-1.708,29.968-2.047,44.892-0.558c10.607,1.902,20.999,4.84,31.065,8.913
		c7.938,4.073,15.514,8.863,22.694,14.336c7.912,7.141,15.16,15.051,21.766,23.597c9.712,14.405,17.769,29.983,24.496,46.244
		c11.054,30.169,18.098,61.92,22.518,93.983c1.025,8.888,1.859,17.809,2.508,26.753c-1.322,0.452-1.993,1.7-1.971,2.976H1212.691z"
		/>
	<path style="fill:#462013;" d="M1134.219,1241.739c3.73,1.925,8.662,1.353,11.312-2.076c2.116-2.739,2.537-6.394,2.376-9.759
		c-0.109-2.253-0.41-4.562-0.976-6.751c-0.409-1.579-2.25-2.691-3.836-2.178c-1.628,0.527-2.616,2.143-2.178,3.836l0.276,1.245
		c0.09,0.457,0.171,0.915,0.243,1.375l0.039,0.255l0.086,0.757c0.131,1.318,0.184,2.649,0.096,3.972l-0.093,0.976l0.005-0.132
		l-0.102,0.524l-0.223,0.844l-0.13,0.384l-0.367,0.682l-0.098,0.143l-0.092,0.103l-0.24,0.234l-0.193,0.123l-0.251,0.127
		l-0.086,0.03l-0.407,0.108l-0.067,0.008l0.166,0.001l-0.657,0.042l-0.496-0.01l0.101,0.035l-0.141-0.036h-0.014l-0.311-0.084
		l-0.532-0.137l-0.302-0.159l-0.402-0.25l-0.617-0.579l-0.306-0.341c-0.356-0.548-0.715-1.08-1.014-1.666l-0.295-0.629l-0.042-0.086
		l-0.01-0.025l-0.068-0.146l0.063,0.133l-0.178-0.472c-0.435-1.207-0.76-2.454-0.997-3.714l-0.118-0.677l-0.002-0.014l0.028,0.258
		l-0.039-0.329l-0.03-0.198c-0.17-1.601-1.334-3.145-3.105-3.066c-1.561,0.07-3.279,1.379-3.118,3.118
		c0.179,1.93,0.567,3.871,1.172,5.712C1129.135,1236.561,1130.993,1240.074,1134.219,1241.739z"/>
	<polygon style="fill:#FFFFFF;" points="831.164,534.279 831.164,319.153 821.205,319.153 821.205,544.238 821.205,919.793 
		821.205,1335.582 821.205,1669.065 831.164,1669.065 831.164,1325.623 831.164,909.834 	"/>
	<path style="fill:#462013;" d="M1599.223,1780.766c-1.322,0.452-1.993,1.7-1.971,2.976c0.027,1.539,1.021,3.058,3.005,3.058
		c30.824,0,61.647,0,92.47,0c1.981,0,2.977-1.519,3.005-3.058c0.029-1.583-0.964-3.187-3.005-3.187h-0.798
		c-30.558,0-61.115,0-91.672,0L1599.223,1780.766z"/>
	<path style="fill:#1D4A93;" d="M1200.261,1613.948l-6.76-131.12l-3.275-63.517c-0.056-14.342-11.674-27.526-31.211-38.086
		c-16.733-9.044-39.287-16.151-65.373-20.416l-4.694,48.621l-0.045,0.464l-0.031,0.322l-0.053-0.024
		c-0.096,0.483-0.193,0.966-0.397,1.41c-4.368,9.481-32.084,6.029-61.907-7.71c-29.821-13.739-50.456-32.562-46.089-42.043
		l0.58-1.26c-32.261,5.098-59.377,14.478-77.231,26.429c-14.514,9.715-22.912,21.12-22.956,33.306
		c-1.821,7.762-3.599,16.763-5.327,26.663c-13.985,80.155-24.552,219.531-26.268,242.926c-0.162,1.13-0.251,2.266-0.247,3.41
		c0.027,6.946,3.21,13.613,8.99,19.848c5.654,6.1,13.831,11.774,24.095,16.876c23.44,11.651,57.725,20.287,97.626,24.055
		c-8.015-14.698-14.984-29.954-21.121-45.422c-14.941-37.659-24.073-77.347-29.832-117.208c-1.389-9.614-2.608-19.24-3.706-28.874
		c1.019-0.572,1.529-1.684,1.5-2.811l69.864-0.273c0.039,1.529,1.029,3.03,3.001,3.03h0.315c0.45,3.813,0.954,7.616,1.46,11.42
		c1.191,8.083,2.487,16.15,3.98,24.187c6.324,34.042,15.491,67.729,29.084,99.785c4.489,9.811,9.396,19.445,14.892,28.774
		c5.461,9.27,11.476,18.241,18.086,26.793l0.343,0.413l0.351,0.402c78.295-6.937,136.492-32.329,136.375-62.383L1200.261,1613.948z"
		/>
	<path style="fill:#462013;" d="M926.53,1559.787c-0.039-1.529-1.029-3.029-3.001-3.029c-5.927,0-11.854,0-17.781,0
		c-0.034-33.706,0.956-68.016,7.917-101.08c3.743-17.777,9.296-39.093,23.843-51.346c10.099-8.506,24.535-9.43,35.982-3.054
		c16.044,8.936,24.407,28.115,29.756,44.749c11.344,35.282,13.392,73.416,13.688,110.271c-5.847,0-11.693,0-17.539,0
		c-2.05,0-3.043,1.623-3.001,3.215c0.039,1.529,1.029,3.03,3.001,3.03h0.315c6.794,0,13.588,0,20.383,0
		c1.681,0,3.132-1.431,3.122-3.123c-0.201-36.647-2.109-74.45-12.363-109.859c-5.472-18.897-13.956-39.767-30.69-51.46
		c-11.785-8.236-27.782-9.798-40.527-2.784c-16.131,8.879-23.882,28.332-28.651,45.079c-10.931,38.388-11.595,79.882-11.487,119.484
		c0.005,1.688,1.427,3.123,3.123,3.123c6.97,0,13.939,0,20.909,0c0.599,0,1.08-0.169,1.501-0.405
		C926.048,1562.026,926.559,1560.914,926.53,1559.787z"/>
</g>
</svg>
