<svg
  width="208"
  height="84"
  viewBox="0 0 146 58"
  fill="none"
  xmlns="http://www.w3.org/2000/svg"
>
  <g clip-path="url(#clip0_111_5025)">
    <path
      d="M48.3793 27.9011C46.1633 27.9011 45.1949 25.7265 44.8504 24.4127L44.2266 24.5637C44.3569 25.5979 44.6363 27.4502 44.8076 27.9011C45.0012 28.0092 45.3234 28.1601 45.8616 28.3539C46.3998 28.5049 47.0888 28.6763 47.9715 28.6763C50.8337 28.6763 52.7481 26.8669 52.7481 24.6065C52.7481 22.1952 50.7052 21.1834 49.0255 20.3224C47.3253 19.4392 46.2918 18.7068 46.2918 17.1359C46.2918 15.9731 47.0236 14.7675 48.6791 14.7675C50.5507 14.7675 51.1112 16.2527 51.4985 17.6316L52.1224 17.503C51.9492 16.1464 51.8431 15.306 51.7574 14.5308C50.938 14.2718 50.0348 14.0352 49.046 14.0352C46.2694 14.0352 44.612 15.8017 44.612 17.8683C44.612 20.302 46.7853 21.379 48.1633 22.1114C49.7778 22.9723 50.9604 23.7251 50.9604 25.3202C50.9604 26.9153 49.992 27.9048 48.3793 27.9048"
      fill="#FFFFFF"
    />
    <path
      d="M58.6198 27.7502C57.0052 27.5992 56.8115 27.3831 57.2864 26.0283C57.5657 25.1246 57.8879 24.2189 58.2324 23.2499H62.8172C63.2902 24.5637 63.7204 25.7265 63.9997 26.5669C64.2791 27.4073 64.0854 27.5787 62.7297 27.752V28.3539H68.0016V27.752C66.6031 27.6235 66.3238 27.4297 65.6347 25.5774C64.2586 21.83 62.8153 17.7397 61.482 14.0352L60.8153 14.229L56.3609 25.5345C55.6067 27.4297 55.3069 27.5582 53.9512 27.752V28.3539H58.6216V27.752L58.6198 27.7502ZM60.5788 16.8322H60.6217L62.5137 22.3238H58.5546C59.2008 20.5591 59.8879 18.6845 60.577 16.8322"
      fill="#FFFFFF"
    />
    <path
      d="M68.8802 15.7777C69.1596 15.2821 69.5898 15.1106 71.3756 15.1106H72.709V25.7044C72.709 27.4057 72.5377 27.62 70.5786 27.7504V28.3542H76.7556V27.7504C74.7109 27.62 74.5377 27.4057 74.5377 25.7044V15.1106H76.0666C77.6811 15.1106 78.0461 15.2616 78.3906 15.7777C78.6495 16.1225 78.8413 16.661 79.0796 17.6934L79.7035 17.6281C79.5955 16.3796 79.4893 14.8069 79.4893 13.8174H79.0368C78.6923 14.2255 78.521 14.3559 77.94 14.3559H69.4408C68.8393 14.3559 68.5581 14.3131 68.2564 13.8174H67.8262C67.7834 15.0025 67.6754 16.402 67.5674 17.6934H68.1912C68.4501 16.7467 68.6214 16.143 68.8802 15.7777Z"
      fill="#FFFFFF"
    />
    <path
      d="M89.9888 27.4919C91.2588 26.782 92.054 25.6825 92.054 24.2402C92.054 22.0861 90.3761 21.1394 88.2457 20.817V20.7518C89.4506 20.4294 91.1508 19.589 91.1508 17.543C91.1508 16.5516 90.7206 15.605 89.946 15.0888C89.2793 14.6155 88.3314 14.3564 86.7187 14.3564H81.1879V14.9583C82.9086 15.0869 82.9961 15.2174 82.9961 17.0044V25.6825C82.9961 27.4919 82.8676 27.6205 81.0166 27.7491V28.351H85.7727C87.4729 28.351 88.8938 28.092 89.9906 27.4901M84.8044 16.3354C84.8044 15.6255 84.89 15.3888 85.0837 15.2584C85.2997 15.1298 85.7727 15.0422 86.3109 15.0422C88.3538 15.0422 89.1731 16.3336 89.1731 17.7982C89.1731 19.6077 88.1843 20.5543 85.8155 20.5543H84.8044V16.3336V16.3354ZM84.8044 25.6602V21.268H85.7951C88.4189 21.268 89.9273 22.237 89.9273 24.4545C89.9273 26.672 88.3556 27.5981 86.5921 27.6205C85.2159 27.6205 84.8062 27.2106 84.8062 25.662"
      fill="#FFFFFF"
    />
    <path
      d="M97.4751 27.7502C95.8606 27.5992 95.6669 27.3831 96.1418 26.0283C96.4211 25.1246 96.7433 24.2189 97.0878 23.2499H101.673C102.146 24.5637 102.576 25.7265 102.855 26.5669C103.134 27.4073 102.941 27.5787 101.585 27.752V28.3539H106.857V27.752C105.458 27.6235 105.179 27.4297 104.49 25.5774C103.114 21.83 101.671 17.7397 100.337 14.0352L99.6688 14.229L95.2144 25.5345C94.4602 27.4297 94.1604 27.5582 92.8047 27.752V28.3539H97.4751V27.752V27.7502ZM99.4342 16.8322H99.477L101.371 22.3238H97.4118C98.058 20.5591 98.7452 18.6845 99.4361 16.8322"
      fill="#FFFFFF"
    />
    <path
      d="M108.252 16.7901C109.436 18.7933 110.211 20.1928 110.963 21.527C111.328 22.1718 111.415 22.3674 111.415 22.7979V25.662C111.415 27.4919 111.222 27.6224 109.307 27.751V28.3547H115.397V27.751C113.417 27.6224 113.244 27.4714 113.244 25.662V22.7327C113.244 22.1736 113.309 21.937 113.589 21.3761C114.622 19.4809 115.354 18.2324 116.322 16.6597C117.162 15.3459 117.399 15.1316 118.883 14.9583V14.3564H114.127V14.9583C115.807 15.1316 115.87 15.3031 115.375 16.3802C114.771 17.6939 113.609 19.8033 112.812 21.2251C111.887 19.6114 110.833 17.8448 109.929 16.1211C109.52 15.4112 109.477 15.1521 111.006 14.9583V14.3564H105.862V14.9583C107.153 15.0869 107.391 15.3254 108.252 16.7883"
      fill="#FFFFFF"
    />
    <path
      d="M130.93 24.9501L130.285 24.8644C130.004 25.7253 129.596 26.4576 129.229 26.8881C128.756 27.4471 128.153 27.6204 126.518 27.6204C125.442 27.6204 124.689 27.5981 124.28 27.3409C123.892 27.0614 123.764 26.6086 123.764 25.5967V21.5269H125.808C127.68 21.5269 127.831 21.6555 128.11 23.2059H128.734V19.0709H128.11C127.831 20.5132 127.723 20.6865 125.786 20.6865H123.764V15.7987C123.764 15.1521 123.807 15.1092 124.473 15.1092H126.11C127.66 15.1092 128.241 15.2601 128.542 15.7111C128.822 16.1844 129.038 16.6577 129.229 17.5634L129.853 17.4553C129.788 16.3577 129.682 14.893 129.682 14.3545H120.084V14.9564C121.762 15.1073 121.935 15.1707 121.935 17.1105V25.6806C121.935 27.4248 121.764 27.5962 119.805 27.7471V28.349H130.177C130.371 27.6819 130.801 25.6582 130.93 24.9464"
      fill="#FFFFFF"
    />
    <path
      d="M141.083 14.3564V14.9583C142.827 15.1745 142.954 15.3459 142.546 16.574C141.857 18.7281 140.222 22.9265 139.148 25.6192H139.105C137.663 21.9146 136.092 17.7591 135.531 16.2311C135.187 15.2826 135.272 15.1335 136.801 14.9602V14.3583H131.529V14.9826C132.797 15.0906 133.144 15.2621 133.768 16.8777C135.015 19.999 136.781 24.6297 138.222 28.5709H138.889C140.503 24.134 142.785 18.6648 143.364 17.2653C144.181 15.3273 144.462 15.1335 145.924 14.9621V14.3602H141.083V14.3564Z"
      fill="#FFFFFF"
    />
    <path
      d="M51.8507 33.8891C53.1002 33.9785 53.4745 34.1928 53.5807 34.8897C53.6514 35.4432 53.7054 36.1923 53.7054 37.8358V39.1924C53.7054 42.1386 52.9028 44.2797 50.333 44.2797C48.1206 44.2797 46.9791 42.638 46.9791 39.7627V35.6929C46.9791 34.0866 47.1206 33.9785 48.5303 33.8891V33.3896H43.9102V33.8891C45.3199 34.0139 45.4614 34.0847 45.4614 35.6929V40.1559C45.4614 42.2448 45.9623 43.5827 47.0312 44.4045C47.8152 45.012 48.8506 45.2617 49.886 45.2617C51.0629 45.2617 52.2585 44.8872 53.0797 44.03C54.1151 42.9399 54.4354 41.423 54.4354 39.3173V37.8358C54.4354 36.1941 54.4727 35.4245 54.5248 34.9438C54.6142 34.2114 55.0239 33.9617 56.0947 33.8909V33.3915H51.8488V33.8909L51.8507 33.8891Z"
      fill="#FFFFFF"
    />
    <path
      d="M65.0665 33.8889C66.2974 33.9597 66.7257 34.1926 66.8151 34.9958C66.8691 35.4952 66.9399 36.317 66.9399 37.9587V42.3508H66.8859L59.4463 33.3876H56.8057V33.887C57.6437 33.9578 58.0366 34.1013 58.3923 34.5467C58.7144 34.9753 58.7498 35.0461 58.7498 36.3505V40.2787C58.7498 41.9204 58.6958 42.7775 58.6418 43.331C58.5524 44.205 58.1074 44.4379 57.072 44.4901V44.9895H61.3011V44.4901C60.0869 44.4193 59.6772 44.205 59.5878 43.2937C59.5338 42.7757 59.4817 41.9185 59.4817 40.2768V35.7952H59.5171L67.1168 45.1497H67.6699V37.9549C67.6699 36.2946 67.7053 35.4914 67.7779 34.9566C67.8486 34.1703 68.2769 33.9392 69.2751 33.8851V33.3857H65.0646V33.8851L65.0665 33.8889Z"
      fill="#FFFFFF"
    />
    <path
      d="M70.3779 33.8891C71.8416 33.9953 71.9832 34.1034 71.9832 35.6202V42.761C71.9832 44.2778 71.8398 44.3859 70.3779 44.4921V44.9915H75.1061V44.4921C73.6424 44.3859 73.5009 44.2964 73.5009 42.761V35.6202C73.5009 34.1034 73.6443 33.9953 75.1061 33.8891V33.3896H70.3779V33.8891Z"
      fill="#FFFFFF"
    />
    <path
      d="M84.0255 33.8891C85.4706 34.0679 85.5767 34.2096 85.2378 35.227C84.6661 37.0122 83.3123 40.4931 82.4203 42.7256H82.3849C81.1893 39.6546 79.8876 36.2091 79.4239 34.9419C79.139 34.1555 79.2098 34.0325 80.4761 33.8891V33.3896H76.1055V33.9077C77.1576 33.9971 77.4444 34.1388 77.9602 35.4786C78.9956 38.0669 80.4575 41.9056 81.653 45.1723H82.2061C83.545 41.4957 85.4352 36.96 85.9175 35.7991C86.5954 34.1928 86.8281 34.0325 88.0404 33.8891V33.3896H84.0274V33.8891H84.0255Z"
      fill="#FFFFFF"
    />
    <path
      d="M96.652 43.7803C96.259 44.2443 95.76 44.3878 94.4043 44.3878C93.5122 44.3878 92.8884 44.371 92.5495 44.1548C92.2292 43.9219 92.1212 43.5473 92.1212 42.7088V39.3341H93.8177C95.3689 39.3341 95.4937 39.4403 95.7264 40.7261H96.2441V37.2973H95.7264C95.4955 38.4936 95.4061 38.6371 93.799 38.6371H92.1212V34.5841C92.1212 34.0493 92.1566 34.0139 92.7115 34.0139H94.0672C95.3521 34.0139 95.8326 34.1388 96.084 34.5133C96.3168 34.9065 96.4955 35.2997 96.6557 36.0488L97.1734 35.9594C97.1194 35.05 97.03 33.835 97.03 33.3896H89.0727V33.8891C90.4638 34.0139 90.6072 34.0679 90.6072 35.6742V42.7796C90.6072 44.2256 90.4638 44.3691 88.8418 44.494V44.9934H97.4397C97.6017 44.4399 97.9574 42.761 98.0635 42.1721L97.5291 42.1013C97.2963 42.8169 96.9574 43.4225 96.6538 43.7803"
      fill="#FFFFFF"
    />
    <path
      d="M108.425 43.8324C107.997 43.3684 107.623 42.9044 106.98 41.9764C106.446 41.1733 105.695 39.977 105.392 39.3881C106.712 38.816 107.658 37.8713 107.658 36.3358C107.658 35.2643 107.194 34.4611 106.479 33.9971C105.801 33.5518 104.928 33.3896 103.624 33.3896H99.1997V33.8891C100.591 34.0139 100.734 34.0679 100.734 35.5848V42.7628C100.734 44.2797 100.574 44.3878 99.1104 44.494V44.9934H103.803V44.494C102.377 44.3878 102.215 44.2797 102.215 42.7628V39.9248H102.785C103.712 39.9248 104.015 40.1391 104.319 40.6385C104.853 41.5124 105.498 42.6193 106.122 43.4952C106.924 44.6561 107.673 45.0474 109.012 45.1201C109.226 45.1369 109.423 45.1369 109.636 45.1369L109.706 44.6729C109.313 44.5666 108.904 44.371 108.421 43.8343M105.014 38.8365C104.569 39.1924 103.978 39.3359 103.069 39.3359H102.213V34.9438C102.213 34.4611 102.284 34.2468 102.41 34.1574C102.552 34.0512 102.855 33.9785 103.373 33.9785C104.729 33.9785 105.995 34.6922 105.995 36.6209C105.995 37.5843 105.71 38.2998 105.014 38.8347"
      fill="#FFFFFF"
    />
    <path
      d="M114.255 38.3351C112.845 37.6047 111.991 36.9972 111.991 35.6927C111.991 34.7275 112.598 33.7287 113.97 33.7287C115.523 33.7287 115.987 34.9604 116.307 36.1027L116.825 35.9965C116.683 34.871 116.592 34.1759 116.521 33.533C115.844 33.3187 115.093 33.123 114.274 33.123C111.972 33.123 110.598 34.5877 110.598 36.3002C110.598 38.3165 112.4 39.2109 113.542 39.8166C114.879 40.5321 115.86 41.1564 115.86 42.4776C115.86 43.7988 115.058 44.6206 113.721 44.6206C111.883 44.6206 111.08 42.8167 110.795 41.7285L110.277 41.8533C110.383 42.7105 110.616 44.246 110.76 44.6206C110.922 44.71 111.188 44.8349 111.633 44.9951C112.078 45.12 112.65 45.2634 113.382 45.2634C115.754 45.2634 117.343 43.7634 117.343 41.8887C117.343 39.8892 115.648 39.0507 114.257 38.3351"
      fill="#FFFFFF"
    />
    <path
      d="M118.445 33.8891C119.909 33.9953 120.051 34.1034 120.051 35.6202V42.761C120.051 44.2778 119.907 44.3859 118.445 44.4921V44.9915H123.173V44.4921C121.71 44.3859 121.568 44.2964 121.568 42.761V35.6202C121.568 34.1034 121.712 33.9953 123.173 33.8891V33.3896H118.445V33.8891Z"
      fill="#FFFFFF"
    />
    <path
      d="M133.859 32.9423C133.574 33.2814 133.431 33.3877 132.95 33.3877H125.902C125.403 33.3877 125.172 33.3523 124.92 32.9423H124.565C124.529 33.9243 124.44 35.0853 124.351 36.1549H124.868C125.082 35.3704 125.226 34.8691 125.44 34.5672C125.671 34.1573 126.028 34.0138 127.511 34.0138H128.617V42.7962C128.617 44.2069 128.474 44.3858 126.852 44.492V44.9914H131.971V44.492C130.276 44.3858 130.133 44.2069 130.133 42.7962V34.0138H131.399C132.736 34.0138 133.04 34.1386 133.326 34.5672C133.541 34.8523 133.701 35.2996 133.898 36.1549L134.416 36.1008C134.327 35.0648 134.237 33.7622 134.237 32.9404H133.863L133.859 32.9423Z"
      fill="#FFFFFF"
    />
    <path
      d="M141.871 33.8891C143.262 34.0326 143.316 34.1743 142.904 35.0668C142.405 36.157 141.442 37.9049 140.781 39.0845C140.014 37.7465 139.141 36.2818 138.39 34.8544C138.051 34.2656 138.016 34.0513 139.282 33.891V33.3916H135.018V33.891C136.088 33.9972 136.284 34.1948 136.999 35.4097C137.98 37.0701 138.621 38.2291 139.247 39.336C139.55 39.8708 139.623 40.033 139.623 40.3889V42.7629C139.623 44.2798 139.461 44.3878 137.874 44.4941V44.9935H142.925V44.4941C141.284 44.3878 141.141 44.263 141.141 42.7629V40.3348C141.141 39.8708 141.195 39.6752 141.425 39.2112C142.282 37.6403 142.889 36.6042 143.692 35.3016C144.386 34.2134 144.584 34.0345 145.815 33.891V33.3916H141.872V33.891L141.871 33.8891Z"
      fill="#FFFFFF"
    />
    
    <path
      d="M30.2712 0H19.0048C17.3977 0 17.0178 1.38641 17.0178 1.38641C17.0178 1.38641 16.6453 0 15.0289 0H3.76249L0.0771484 3.68591V41.05C0.0771484 51.0009 7.67688 58 17.0159 58C26.355 58 33.9547 51.0009 33.9547 41.05V3.68591L30.2712 0ZM30.2712 41.05C30.2712 48.3827 24.3251 54.3141 17.0159 54.3141C9.7067 54.3141 3.76062 48.3827 3.76062 41.05V3.68591H30.2712V41.05Z"
      fill="#90CAF9"
    />
    <path
      d="M11.1344 5.23955L11.3299 5.25073C11.3914 5.25446 11.4119 5.26005 11.4156 5.26005C11.423 5.27309 11.4268 5.31782 11.4268 5.39422V6.85703C11.4268 7.09182 11.4268 7.09555 11.153 7.11605C11.1027 7.11978 11.0636 7.16077 11.0636 7.21295V7.33594C11.0636 7.38998 11.1065 7.43284 11.1605 7.43284H12.3262C12.3802 7.43284 12.4231 7.38998 12.4231 7.33594V7.21295C12.4231 7.16077 12.3839 7.11978 12.3337 7.11605C12.0655 7.09741 12.0655 7.09182 12.0655 6.85703V4.83145L12.0264 4.75319L11.9407 4.73828C11.6055 4.84077 11.3541 4.90227 11.127 4.9414C11.0804 4.94885 11.0469 4.98985 11.0469 5.03643V5.14265C11.0469 5.19296 11.086 5.23582 11.1381 5.23955"
      fill="#90CAF9"
    />
    <path
      d="M15.1738 6.51122C15.2595 6.51122 15.3414 6.487 15.4457 6.43296L15.4625 6.42364C15.3023 6.8131 14.9522 7.09076 14.5034 7.1653L14.4401 7.20443L14.4234 7.2771L14.4476 7.41127L14.5426 7.4914H14.5444C14.7064 7.48581 15.0211 7.42804 15.2036 7.35723C15.8442 7.10007 16.226 6.52613 16.226 5.82547C16.226 5.17326 15.8536 4.73535 15.2986 4.73535C14.6413 4.73535 14.334 5.29625 14.334 5.6764C14.334 6.16089 14.6859 6.51122 15.172 6.51122M15.2316 5.08009C15.5482 5.08009 15.5649 5.68571 15.5649 5.80684C15.5649 5.8851 15.5612 5.95591 15.5537 6.023C15.496 6.04722 15.4364 6.06027 15.3787 6.06027C15.1217 6.06027 14.9876 5.79193 14.9876 5.52732C14.9876 5.37265 15.0398 5.08009 15.2334 5.08009"
      fill="#90CAF9"
    />
    <path
      d="M18.5189 7.07017C18.3215 7.07017 18.1651 6.93414 18.0795 6.8596C18.005 6.79811 17.9119 6.79997 17.8355 6.8596C17.802 6.88382 17.694 6.97513 17.6865 7.09812C17.6865 7.18011 17.7256 7.25652 17.8076 7.32733C17.897 7.39627 18.0776 7.47827 18.2917 7.47827C18.5748 7.47827 19.4631 7.1708 19.4631 6.45523C19.4631 6.1608 19.2918 5.92228 19.0106 5.80675C19.0627 5.76948 19.1074 5.73594 19.1446 5.70053C19.2433 5.60736 19.2973 5.48437 19.2973 5.35952C19.2973 4.98496 19.0087 4.7334 18.5785 4.7334C18.3439 4.7334 18.1204 4.83216 17.9603 5.01105L17.7759 5.26635L17.7871 5.39306L17.8821 5.48437L17.9584 5.51046L18.0273 5.47133C18.1614 5.28684 18.2787 5.20858 18.4184 5.20858C18.4947 5.20858 18.6735 5.23467 18.6735 5.47505C18.6735 5.59245 18.6195 5.76575 18.1539 5.91669C18.1074 5.9316 18.0795 5.98005 18.0888 6.0285L18.1167 6.15521L18.1595 6.21671L18.234 6.22789C18.2936 6.21298 18.37 6.19621 18.4351 6.19621C18.5804 6.19621 18.8225 6.28379 18.8225 6.61176C18.8225 6.7832 18.7834 7.07017 18.5208 7.07017"
      fill="#90CAF9"
    />
    <path
      d="M21.088 6.74425H22.0005V6.89519C22.0005 7.0306 21.9105 7.10514 21.7305 7.11881C21.6802 7.12254 21.6411 7.1654 21.6411 7.21571V7.3387C21.6411 7.39274 21.684 7.4356 21.738 7.4356H22.8534C22.9074 7.4356 22.9503 7.39274 22.9503 7.3387V7.21571C22.9503 7.1654 22.913 7.1244 22.8627 7.11881C22.7063 7.10514 22.6281 7.03495 22.6281 6.90824V6.74425H22.8944C22.9484 6.74425 22.9912 6.70139 22.9912 6.64735V6.43492C22.9912 6.38088 22.9484 6.33802 22.8944 6.33802H22.6281V4.85471C22.6281 4.80067 22.5853 4.75781 22.5313 4.75781H22.2948L22.2184 4.79508C21.8646 5.24417 21.4568 5.79948 21.008 6.44796L20.9912 6.50201V6.64922C20.9912 6.70326 21.034 6.74612 21.088 6.74612M22.0005 5.64482V6.33802H21.5387C21.7138 6.06223 21.872 5.8293 22.0005 5.64482Z"
      fill="#90CAF9"
    />
    <path
      d="M0.0732422 3.68555H3.76603V5.42788L0.0732422 3.68555Z"
      fill="#90CAF9"
    />
    <path
      d="M33.9604 3.68555H30.2676V5.42788L33.9604 3.68555Z"
      fill="#90CAF9"
    />
    <path
      d="M20.9744 29.9699L20.5051 29.5059L14.4399 23.5447C12.9129 21.9142 11.7471 20.0731 11.7471 17.7661C11.7471 14.5945 14.2239 11.572 18.0768 11.572C22.9502 11.572 24.7901 16.3555 23.5182 18.9382C22.7975 20.3992 20.818 21.1856 19.723 20.8054C19.6113 20.7663 19.6057 20.5986 19.71 20.5427C20.5666 20.0898 21.2519 19.1842 21.2556 17.8593C21.2612 16.3313 20.1457 14.8535 18.1774 14.8535C15.9539 14.8535 13.5404 17.7214 16.8924 21.1427C19.1401 23.4385 24.1495 27.9033 26.0601 31.2407C26.1235 31.3526 26.2613 31.3358 26.3115 31.2165C27.5313 28.2629 26.1477 24.7783 23.805 23.418C23.7119 23.3639 23.7007 23.2409 23.7901 23.1794C25.7436 21.8322 26.3488 19.76 26.5425 18.7817C27.7212 12.8373 21.7491 7.42581 15.4678 8.5532C12.0953 9.15696 8.84204 11.2328 7.57387 16.0145C6.84202 18.7687 7.49566 21.4148 8.75824 23.7627C9.60183 25.3317 11.4138 27.5716 13.0581 29.1108L13.5274 29.5748L19.5927 35.536C21.1197 37.1665 22.2854 39.0076 22.2854 41.3146C22.2854 44.4862 19.8087 47.5087 15.9557 47.5087C11.0823 47.5087 9.24242 42.7252 10.5143 40.1425C11.235 38.6815 13.2145 37.8951 14.3095 38.2753C14.4194 38.3144 14.425 38.484 14.3207 38.538C13.4641 38.9909 12.7788 39.8965 12.7751 41.2214C12.7695 42.7494 13.8849 44.2272 15.8533 44.2272C18.0768 44.2272 20.4902 41.3593 17.1382 37.938C14.8905 35.6422 9.88116 31.1774 7.97052 27.8399C7.90721 27.7281 7.7694 27.7449 7.71912 27.8642C6.49937 30.8177 7.883 34.3024 10.2257 35.6627C10.3188 35.7168 10.33 35.8398 10.2406 35.9012C8.2871 37.2485 7.68188 39.3225 7.48821 40.299C6.30942 46.2434 12.2816 51.6549 18.5628 50.5275C21.9335 49.9237 25.1886 47.8478 26.4568 43.0662C27.1887 40.312 26.535 37.6659 25.2724 35.318C24.4288 33.749 22.6169 31.5072 20.9726 29.9699"
      fill="#90CAF9"
    />
  </g>
  <defs>
    <clipPath id="clip0_111_5025">
      <rect
        width="145.853"
        height="58"
        fill="white"
        transform="translate(0.0732422)"
      />
    </clipPath>
  </defs>
</svg>